<?xml version="1.0" encoding="UTF-8"?>
<!DOCTYPE svg PUBLIC "-//W3C//DTD SVG 1.1//EN" "http://www.w3.org/Graphics/SVG/1.1/DTD/svg11.dtd">
<svg version="1.1" xmlns="http://www.w3.org/2000/svg" xmlns:xlink="http://www.w3.org/1999/xlink" x="0" y="0" width="480" height="240" viewBox="0, 0, 480, 240">
  <g id="Layer_1">
    <path d="M29.009,5 L449.107,5 C456.228,5 462,10.772 462,17.893 L462,223.107 C462,230.228 456.228,236 449.107,236 L29.009,236 C21.889,236 16.116,230.228 16.116,223.107 L16.116,17.893 C16.116,10.772 21.889,5 29.009,5 z" fill="#27415E"/>
    <path d="M80.431,154.881 L80.431,118.216 C80.674,109.353 85.652,104.254 91.358,104.254 C100.343,104.254 102.164,111.66 102.285,118.216 L102.285,154.881 L120.497,154.881 L120.497,115.181 C120.497,113.117 120.254,109.232 119.282,105.468 C117.097,96.605 105.32,92.113 99.25,92.113 C90.023,92.113 84.317,95.755 80.553,101.34 L80.31,101.097 L80.31,67.224 L62.22,67.224 L62.22,154.881 z" fill="#FFFFFF"/>
    <path d="M128.51,93.934 L128.51,106.075 L140.772,106.075 L140.772,136.063 C140.772,149.297 143.807,156.703 158.012,156.703 C160.562,156.703 170.274,155.853 172.338,154.881 L172.338,144.197 C170.396,144.319 168.453,144.562 166.511,144.562 C160.197,144.562 158.983,142.376 158.983,134.363 L158.983,106.075 L172.703,106.075 L172.703,93.934 L158.983,93.934 L158.983,75.358 L140.772,81.914 L140.772,93.934 z" fill="#FFFFFF"/>
    <path d="M175.738,93.934 L175.738,106.075 L188,106.075 L188,136.063 C188,149.297 191.035,156.703 205.24,156.703 C207.79,156.703 217.503,155.853 219.567,154.881 L219.567,144.197 C217.624,144.319 215.681,144.562 213.739,144.562 C207.426,144.562 206.212,142.376 206.212,134.363 L206.212,106.075 L219.931,106.075 L219.931,93.934 L206.212,93.934 L206.212,75.358 L188,81.914 L188,93.934 z" fill="#FFFFFF"/>
    <path d="M246.762,93.934 L228.308,93.934 C228.551,97.94 228.915,102.068 228.915,106.075 L228.915,178.192 L247.126,178.192 L247.126,146.261 L247.369,146.261 C251.254,153.424 258.053,156.703 265.945,156.703 C283.792,156.703 292.169,140.069 292.169,124.408 C292.169,108.017 282.578,92.113 263.638,92.113 C257.325,92.113 250.769,95.876 247.369,100.976 L247.126,100.976 z M247.126,124.408 C247.126,116.03 250.405,104.254 260.239,104.254 C271.894,104.254 273.351,115.059 273.351,124.408 C273.351,133.756 271.894,144.562 260.239,144.562 C250.405,144.562 247.126,132.785 247.126,124.408 z" fill="#FFFFFF"/>
    <path d="M321.672,154.881 L321.672,138.734 L306.253,138.734 L306.253,154.881 z M321.672,109.96 L321.672,93.813 L306.253,93.813 L306.253,109.96 z" fill="#FFFFFF"/>
    <path d="M379.584,67.224 L365.501,67.224 L335.877,166.537 L350.082,166.537 z" fill="#FFFFFF"/>
    <path d="M423.056,67.224 L408.973,67.224 L379.349,166.537 L393.554,166.537 z" fill="#FFFFFF"/>
  </g>
</svg>
