<?xml version="1.0" encoding="UTF-8" standalone="no"?>
<svg
   xmlns="http://www.w3.org/2000/svg" version="1.1" x="0" y="0" width="508.83481" height="231" viewBox="0 0 508.83481 231" id="https">
  <path style="fill:#27415e" d="M 14.713261,0 494.12156,0 c 8.12636,0 14.71326,5.772 14.71326,12.893 l 0,205.214 c 0,7.121 -6.5869,12.893 -14.71326,12.893 l -479.4083,0 C 6.588044,231 0,225.228 0,218.107 L 0,12.893 C 0,5.772 6.588044,0 14.713261,0 Z" />
  <g style="fill:#ffffff;fill-opacity:1;stroke:none;stroke-linecap:butt;stroke-linejoin:miter" transform="translate(-9.442623,0)">
    <path d="m 108.79168,146.11523 -18.457036,0 0,-34.10156 q 0,-13.183592 -9.609375,-13.183592 -4.921875,0 -7.96875,3.691402 -3.046875,3.69141 -3.046875,9.375 l 0,34.21875 -18.515625,0 0,-88.828121 18.515625,0 0,37.734375 0.234375,0 q 6.796875,-10.371093 18.457032,-10.371093 20.390629,0 20.390629,24.609379 l 0,36.85546 z" />
    <path d="m 159.65105,145.41211 q -4.10156,2.16797 -12.36328,2.16797 -19.57031,0 -19.57031,-20.33203 l 0,-27.480472 -9.72657,0 0,-13.652344 9.72657,0 0,-12.949218 18.45703,-5.273438 0,18.222656 13.47656,0 0,13.652344 -13.47656,0 0,24.257812 q 0,9.375 7.4414,9.375 2.92969,0 6.03516,-1.69922 l 0,13.71094 z" />
    <path d="m 206.29168,145.41211 q -4.10157,2.16797 -12.36329,2.16797 -19.57031,0 -19.57031,-20.33203 l 0,-27.480472 -9.72656,0 0,-13.652344 9.72656,0 0,-12.949218 18.45703,-5.273438 0,18.222656 13.47657,0 0,13.652344 -13.47657,0 0,24.257812 q 0,9.375 7.44141,9.375 2.92969,0 6.03516,-1.69922 l 0,13.71094 z" />
    <path d="m 235.41277,139.14258 -0.23438,0 0,34.57031 -18.51562,0 0,-87.597656 18.51562,0 0,9.023438 0.23438,0 q 6.85547,-10.488281 19.27734,-10.488281 11.66016,0 17.98828,8.027343 6.38672,7.968746 6.38672,21.738286 0,15 -7.4414,24.08203 -7.38282,9.08203 -19.6875,9.08203 -10.83985,0 -16.52344,-8.4375 z m -0.52734,-24.60938 0,4.80469 q 0,6.21094 3.28125,10.13672 3.28125,3.92578 8.61328,3.92578 6.32812,0 9.78515,-4.86328 3.51563,-4.92188 3.51563,-13.88672 0,-15.820312 -12.30469,-15.820312 -5.68359,0 -9.31641,4.335942 -3.57421,4.27734 -3.57421,11.36718 z" />
    <path d="m 287.26824,144.5332 0,-15 q 4.57031,2.75391 9.08203,4.10157 4.57031,1.34765 8.61328,1.34765 4.92188,0 7.73438,-1.34765 2.87109,-1.34766 2.87109,-4.10157 0,-1.75781 -1.28906,-2.92968 -1.28907,-1.17188 -3.33985,-2.05079 -1.99218,-0.8789 -4.39453,-1.58203 -2.40234,-0.70312 -4.6289,-1.58203 -3.57422,-1.34765 -6.32813,-2.87109 -2.69531,-1.58203 -4.57031,-3.63281 -1.81641,-2.05079 -2.8125,-4.7461 -0.9375,-2.69531 -0.9375,-6.38672 0,-5.039059 2.16797,-8.671872 2.22656,-3.632812 5.85937,-5.917969 3.69141,-2.34375 8.37891,-3.398437 4.74609,-1.113281 9.84375,-1.113281 3.98437,0 8.08594,0.644531 4.10156,0.585937 8.08593,1.757812 l 0,14.296876 q -3.51562,-2.050782 -7.55859,-3.046876 -3.98438,-1.054687 -7.85156,-1.054687 -1.81641,0 -3.45703,0.351562 -1.58204,0.292969 -2.8125,0.9375 -1.23047,0.585938 -1.9336,1.582031 -0.70312,0.9375 -0.70312,2.16797 0,1.64062 1.05468,2.8125 1.05469,1.17187 2.75391,2.05078 1.69922,0.82031 3.75,1.52344 2.10938,0.64453 4.16016,1.34765 3.6914,1.28907 6.67968,2.8125 2.98829,1.52344 5.09766,3.57422 2.16797,2.05078 3.28125,4.80469 1.17188,2.75391 1.17188,6.5625 0,5.33203 -2.34375,9.14063 -2.28516,3.75 -6.15235,6.15234 -3.80859,2.34375 -8.84765,3.39844 -4.98047,1.11328 -10.3711,1.11328 -9.90234,0 -18.33984,-3.04688 z" />
    <path d="m 352.19011,104.68945 q -4.57031,0 -7.61718,-2.7539 -3.04688,-2.812503 -3.04688,-6.914066 0,-4.21875 3.10547,-6.914062 3.16406,-2.695313 7.85156,-2.695313 4.7461,0 7.73438,2.753907 3.04687,2.695312 3.04687,6.855468 0,4.277344 -3.10547,6.972656 -3.04687,2.69531 -7.96875,2.69531 z m 0,42.89063 q -4.57031,0 -7.61718,-2.8125 -3.04688,-2.8125 -3.04688,-6.91406 0,-4.21875 3.10547,-6.91407 3.16406,-2.69531 7.85156,-2.69531 4.7461,0 7.73438,2.75391 3.04687,2.69531 3.04687,6.85547 0,4.27734 -3.10547,7.03125 -3.04687,2.69531 -7.96875,2.69531 z" />
    <path d="m 423.32293,62.091797 -40.95704,97.968753 -16.52343,0 40.78125,-97.968753 16.69922,0 z" />
    <path d="m 476.52605,62.091797 -40.95703,97.968753 -16.52344,0 40.78125,-97.968753 16.69922,0 z" />
  </g>
</svg>
